# xmcd
#
# Track frame offsets:
# 150
# 13979
# 31926
# 45500
# 61219
# 76283
# 94653
# 110209
# 124857
# 146016
# 162382
# 174817
# 187234
# 210362
#
# Disc length: 3037 seconds
#
#
# Revision: 0
# Processed by: cddbd v1.5.1PL0 Copyright (c) Steve Scherf et al.
# Submitted via: FreeRIP 2.70 
#
DISCID=bd0bdb0e
DTITLE=Whiskeytown - Pneumonia
DYEAR=1900
DGENRE=Country
TTITLE0=Ballad of Carol Lynn
TTITLE1=Don't Wanna Know Why
TTITLE2=Jacksonville Skyline
TTITLE3=Reasons to Lie
TTITLE4=Don't Be Sad
TTITLE5=Sit and Listen to the Rain
TTITLE6=Under Your Breath
TTITLE7=Mirror, Mirror
TTITLE8=Paper Moon
TTITLE9=What the Devil Wanted
TTITLE10=Crazy About You
TTITLE11=My Hometown
TTITLE12=Easy Hearts
TTITLE13=Bar Lights
EXTD=
EXTT0=
EXTT1=
EXTT2=
EXTT3=
EXTT4=
EXTT5=
EXTT6=
EXTT7=
EXTT8=
EXTT9=
EXTT10=
EXTT11=
EXTT12=
EXTT13=
PLAYORDER=
